<svg width="14" height="14" viewBox="0 0 14 14" fill="none" xmlns="http://www.w3.org/2000/svg">
<path d="M10.586 6.15692L6.636 2.20692C6.45384 2.01832 6.35305 1.76571 6.35533 1.50352C6.3576 1.24132 6.46277 0.990508 6.64818 0.8051C6.83359 0.619692 7.0844 0.514523 7.3466 0.512245C7.6088 0.509966 7.8614 0.610761 8.05 0.792919L13.707 6.44992C13.8002 6.54257 13.8741 6.65273 13.9246 6.77407C13.9751 6.8954 14.001 7.02551 14.001 7.15692C14.001 7.28833 13.9751 7.41844 13.9246 7.53977C13.8741 7.66111 13.8002 7.77127 13.707 7.86392L8.05 13.5209C7.95775 13.6164 7.84741 13.6926 7.7254 13.745C7.6034 13.7974 7.47218 13.825 7.3394 13.8262C7.20662 13.8273 7.07494 13.802 6.95205 13.7517C6.82915 13.7015 6.7175 13.6272 6.62361 13.5333C6.52971 13.4394 6.45546 13.3278 6.40518 13.2049C6.3549 13.082 6.3296 12.9503 6.33075 12.8175C6.3319 12.6847 6.35949 12.5535 6.4119 12.4315C6.46431 12.3095 6.54049 12.1992 6.636 12.1069L10.586 8.15692H1C0.734784 8.15692 0.48043 8.05156 0.292893 7.86403C0.105357 7.67649 0 7.42214 0 7.15692C0 6.8917 0.105357 6.63735 0.292893 6.44981C0.48043 6.26228 0.734784 6.15692 1 6.15692H10.586Z" fill="white"/>
</svg>
